<?xml version="1.0" encoding="UTF-8"?>
<svg width="375px" height="89px" viewBox="0 0 375 89" version="1.1" xmlns="http://www.w3.org/2000/svg" xmlns:xlink="http://www.w3.org/1999/xlink">
    <!-- Generator: Sketch 54.1 (76490) - https://sketchapp.com -->
    <title>Test Area 2</title>
    <desc>Created with Sketch.</desc>
    <defs>
        <linearGradient x1="0%" y1="36.8065317%" x2="100%" y2="36.8065317%" id="linearGradient-1">
            <stop stop-color="#F8AC08" offset="0%"></stop>
            <stop stop-color="#DD2C71" offset="100%"></stop>
        </linearGradient>
        <linearGradient x1="50%" y1="23.7220472%" x2="58.1709411%" y2="38.2764542%" id="linearGradient-2">
            <stop stop-color="#F9C049" offset="0%"></stop>
            <stop stop-color="#F18C23" offset="100%"></stop>
        </linearGradient>
        <linearGradient x1="39.7604202%" y1="34.3872406%" x2="100%" y2="67.3642817%" id="linearGradient-3">
            <stop stop-color="#E03A65" offset="0%"></stop>
            <stop stop-color="#F18C23" offset="100%"></stop>
        </linearGradient>
    </defs>
    <g id="Wire-Frames" stroke="none" stroke-width="1" fill="none" fill-rule="evenodd">
        <g id="Test-Area-2" transform="translate(-50.000000, -132.000000)">
            <rect id="Rectangle" fill="url(#linearGradient-1)" x="50.462092" y="132.090707" width="375" height="89"></rect>
            <path d="M205.274363,283.45459 C174.570388,235.390455 118.411653,165.541617 73.1682643,151.58363 C56.7606853,146.521746 39.777279,157.381804 21.5365516,159.521871" id="Path" stroke="url(#linearGradient-2)" stroke-width="0.5" fill-opacity="0.155567089" fill="#FFFFFF" transform="translate(113.405457, 216.853812) rotate(-34.000000) translate(-113.405457, -216.853812) "></path>
            <path d="M472.98616,201.445804 C452.946379,171.722475 426.099647,145.389498 399.430616,120.767607 C368.051651,91.7973211 335.946955,66.2682006 301.202551,56.1120182 C277.893592,49.2985461 262.899328,56.7519401 236.98616,59.6325457" id="Path" stroke="url(#linearGradient-3)" stroke-width="0.5" fill-opacity="0.117378715" fill="#FFFFFF" transform="translate(354.986160, 127.384427) rotate(-214.000000) translate(-354.986160, -127.384427) "></path>
            <rect id="Rectangle" stroke="#FFFFFF" stroke-width="4" x="48.462092" y="130.090707" width="379" height="93"></rect>
        </g>
    </g>
</svg>