<?xml version="1.0" encoding="UTF-8"?>
<svg width="375px" height="55px" viewBox="0 0 375 55" version="1.1" xmlns="http://www.w3.org/2000/svg" xmlns:xlink="http://www.w3.org/1999/xlink">
    <!-- Generator: Sketch 54.1 (76490) - https://sketchapp.com -->
    <title>Test Area 2</title>
    <desc>Created with Sketch.</desc>
    <defs>
        <linearGradient x1="39.7604202%" y1="34.3872406%" x2="100%" y2="67.3642817%" id="linearGradient-1">
            <stop stop-color="#E03A65" offset="0%"></stop>
            <stop stop-color="#F18C23" offset="100%"></stop>
        </linearGradient>
        <linearGradient x1="0%" y1="36.8065317%" x2="100%" y2="36.8065317%" id="linearGradient-2">
            <stop stop-color="#F8AC08" offset="0%"></stop>
            <stop stop-color="#DD2C71" offset="100%"></stop>
        </linearGradient>
        <linearGradient x1="50%" y1="23.7220472%" x2="58.1709411%" y2="38.2764542%" id="linearGradient-3">
            <stop stop-color="#F9C049" offset="0%"></stop>
            <stop stop-color="#F18C23" offset="100%"></stop>
        </linearGradient>
    </defs>
    <g id="Wire-Frames" stroke="none" stroke-width="1" fill="none" fill-rule="evenodd">
        <g id="Test-Area-2" transform="translate(-51.000000, -9.000000)">
            <g id="HeaderPanelLarge" transform="translate(-0.463448, -0.676950)" fill="#FFFFFF" fill-opacity="0.117378715" stroke="url(#linearGradient-1)" stroke-width="0.5">
                <path d="M473.449609,202.122754 C453.409827,172.399425 426.563096,146.066448 399.894065,121.444557 C368.5151,92.4742713 336.410404,66.9451508 301.665999,56.7889684 C278.357041,49.9754963 263.362777,57.4288902 237.449609,60.3094959" id="Path" transform="translate(355.449609, 128.061377) rotate(-214.000000) translate(-355.449609, -128.061377) "></path>
            </g>
            <g id="HeaderPanelSmall" transform="translate(0.000000, -124.000000)">
                <rect id="Rectangle" fill="url(#linearGradient-2)" x="50.9255404" y="132.767657" width="375" height="55"></rect>
                <path d="M205.737812,255.187767 C175.033836,207.123632 118.875102,137.274794 73.6317127,123.316806 C57.2241337,118.254922 40.2407274,129.11498 22,131.255048" id="Path" stroke="url(#linearGradient-3)" stroke-width="0.5" fill-opacity="0.155567089" fill="#FFFFFF" transform="translate(113.868906, 188.586988) rotate(-34.000000) translate(-113.868906, -188.586988) "></path>
                <path d="M473.449609,198.122754 C453.409827,168.399425 426.563096,142.066448 399.894065,117.444557 C368.5151,88.4742713 336.410404,62.9451508 301.665999,52.7889684 C278.357041,45.9754963 263.362777,53.4288902 237.449609,56.3094959" id="Path" stroke="url(#linearGradient-1)" stroke-width="0.5" fill-opacity="0.117378715" fill="#FFFFFF" transform="translate(355.449609, 124.061377) rotate(-214.000000) translate(-355.449609, -124.061377) "></path>
                <rect id="Rectangle" stroke="#FFFFFF" stroke-width="4" x="48.9255404" y="130.767657" width="379" height="59"></rect>
            </g>
        </g>
    </g>
</svg>